PathFileType	4	(X/Y/Z)	S01_0004_Gait_markers.trc
DataRate	CameraRate	NumFrames	NumMarkers	Units	OrigDataRate	OrigDataStartFrame	OrigNumFrames
250.000000	250.000000	4	54	mm	250.000000	0	320
Frame#	Time	HEAD_ANT			R_HEAD			L_HEAD			C7			R_BACK			L_BACK			STERNUM			R_ACROMION			R_HUM_PROX			R_HUM_ANT			R_HUM_POST			R_ELBOW_LAT			R_ELBOW_MED			R_FOREARM			R_WIRST_LAT			R_WRITS_MED			R_HAND			L_ACROMION			L_HUM_PROX			L_HUM_ANT			L_HUM_POST			L_ELBOW_LAT			L_ELBOW_MED			L_FOREARM			L_WRIST_LAT			L_WIRST_MED			L_HAND			R_ILIAC			SACRUM			L_ILIAC			R_GTROCH			R_THIGH__1			R_THIGH_2			R_THIGH_3			R_THIGH_4			R_SHANK_1			R_SHANK_2			R_SHANK_3			R_SHANK_4			R_HEEL			R_FOOT_LAT			R_FOOT_MED			L_GTROCH			L_THIGH_1			L_THIGH_2			L_THIGH_3			L_THIGH_4			L_SHANK_1			L_SHANK_2			L_SHANK_3			L_SHANK_4			L_HEEL			L_FOOT_LAT			L_FOOT_MED			
		X1	Y1	Z1	X2	Y2	Z2	X3	Y3	Z3	X4	Y4	Z4	X5	Y5	Z5	X6	Y6	Z6	X7	Y7	Z7	X8	Y8	Z8	X9	Y9	Z9	X10	Y10	Z10	X11	Y11	Z11	X12	Y12	Z12	X13	Y13	Z13	X14	Y14	Z14	X15	Y15	Z15	X16	Y16	Z16	X17	Y17	Z17	X18	Y18	Z18	X19	Y19	Z19	X20	Y20	Z20	X21	Y21	Z21	X22	Y22	Z22	X23	Y23	Z23	X24	Y24	Z24	X25	Y25	Z25	X26	Y26	Z26	X27	Y27	Z27	X28	Y28	Z28	X29	Y29	Z29	X30	Y30	Z30	X31	Y31	Z31	X32	Y32	Z32	X33	Y33	Z33	X34	Y34	Z34	X35	Y35	Z35	X36	Y36	Z36	X37	Y37	Z37	X38	Y38	Z38	X39	Y39	Z39	X40	Y40	Z40	X41	Y41	Z41	X42	Y42	Z42	X43	Y43	Z43	X44	Y44	Z44	X45	Y45	Z45	X46	Y46	Z46	X47	Y47	Z47	X48	Y48	Z48	X49	Y49	Z49	X50	Y50	Z50	X51	Y51	Z51	X52	Y52	Z52	X53	Y53	Z53	X54	Y54	Z54	

1	0	151.6381225585938	1713.888671875	-313.6911621093746	88.70250701904297	1665.845947265625	-239.0562744140621	93.89329528808594	1667.929931640625	-386.4942626953121	-50.02608489990234	1500.026245117188	-325.3744812011715	-133.19287109375	1303.548461914062	-268.7005310058591	-119.704475402832	1309.467163085938	-407.1355285644528	120.4211807250977	1331.486572265625	-312.2799072265622	9.330284118652344	1445.798217773438	-148.0694427490231	-47.51821899414062	1287.99658203125	-63.60159683227511	9.22032356262207	1200.638061523438	-48.58430862426731	-111.6400604248047	1206.79443359375	-59.19975280761692	-66.69628143310547	1099.164794921875	-42.75823211669898	-77.73074340820312	1093.469848632812	-122.6871643066404	27.30936241149902	913.7344360351562	-27.31917190551738	67.67701721191406	845.7894897460938	-64.49776458740216	-3.46290135383606	825.5677490234375	-30.85230255126935	62.05108261108398	757.7230224609375	-8.360290527343581	43.46726226806641	1457.107543945312	-485.9620971679684	39.28738784790039	1292.892333984375	-585.0703735351559	104.8076400756836	1215.124389648438	-574.7952880859373	-10.4959659576416	1213.18798828125	-618.5531005859373	53.55663299560547	1111.463623046875	-620.272766113281	-4.703346252441406	1099.60107421875	-569.177307128906	185.8779907226562	958.9288940429689	-576.1739501953123	223.7045440673828	909.1157836914064	-516.6929931640623	189.3892669677734	874.6672973632814	-581.3866577148435	272.8905334472656	836.5526733398439	-555.0196533203123	27.55909156799316	1052.37353515625	-147.7648620605466	-106.4672927856445	1022.038024902344	-302.2101135253904	2.435523748397827	1044.051513671875	-490.1304016113279	1.796698212623596	897.8206176757812	-129.3921813964842	110.2737808227539	629.9364013671875	-152.3901977539061	159.2571716308594	662.43701171875	-148.3221893310545	193.9913177490234	567.6722412109375	-187.1259613037108	131.1703796386719	553.2319946289062	-176.1034545898436	205.0500030517578	339.1353149414063	-177.6817321777343	263.5014953613281	343.1117553710938	-192.8434906005859	293.5103149414062	264.2368469238282	-213.7490081787109	233.2715911865234	243.4635162353516	-202.2664947509765	284.5473937988281	38.02348709106452	-295.8843078613281	452.0479125976562	66.11826324462895	-222.713150024414	482.9225463867188	112.4894561767579	-310.4816589355469	-43.11833190917969	939.2431030273439	-485.4653015136716	-27.67105674743652	648.7567138671876	-470.1455078124998	-76.13083648681641	681.1228637695314	-479.8220825195311	-110.8041152954102	586.6743164062501	-443.6883544921874	-48.15564346313477	574.1703491210939	-443.194854736328	-176.6381378173828	324.6508789062501	-417.2270507812499	-236.9698944091797	324.7486877441407	-413.4554748535156	-267.2965087890625	245.1228790283204	-391.8161010742187	-204.8702697753906	229.6928100585938	-388.9766845703124	-357.975830078125	73.50007629394538	-306.8288269042969	-192.6895599365234	18.00937843322762	-382.9814758300781	-150.6911315917969	33.5035247802735	-283.217041015625	
2	0.004	156.9899749755859	1712.8974609375	-313.3203735351559	94.15642547607422	1664.874145507812	-238.4726715087887	99.12451934814453	1667.027221679688	-385.9935607910152	-44.60877227783203	1499.020263671875	-325.2012329101559	-127.5553512573242	1302.685791015625	-268.6042480468747	-114.0227584838867	1308.600341796875	-406.8829650878903	126.1332626342773	1330.767944335938	-312.0816345214841	14.82377910614014	1444.759399414062	-147.7998352050778	-41.86605072021484	1286.692504882812	-63.58920669555636	14.87172603607178	1199.532348632812	-48.6060943603513	-105.847282409668	1205.5478515625	-59.99208450317356	-60.98153305053711	1097.93896484375	-43.06665039062476	-72.11537170410156	1092.355224609375	-123.2641983032224	32.80760955810547	912.52197265625	-27.82301139831523	72.98245239257812	844.375	-64.77788543701153	1.753909945487976	824.2717895507812	-31.2250270843504	66.87465667724609	756.1634521484375	-8.780755043029616	48.96982574462891	1456.340942382812	-485.8590393066403	44.87384796142578	1292.18505859375	-584.7915649414059	110.2224731445312	1214.324340820313	-574.6539916992185	-4.951385021209717	1212.4951171875	-618.6286010742185	59.31439590454102	1110.764526367188	-620.2611694335935	1.138559699058533	1098.7802734375	-569.0513916015623	191.6086120605469	958.2346801757814	-576.3696289062498	229.28662109375	908.4811401367189	-517.1287841796873	195.3036193847656	873.9840698242189	-581.6812744140623	278.6993713378906	835.8848266601564	-555.3393554687498	33.33620834350586	1051.005493164062	-147.4476776123045	-100.7135238647461	1020.973083496094	-302.2717285156248	8.192508697509766	1043.082275390625	-490.1307373046873	7.601266860961914	896.98583984375	-129.6168212890623	116.6572265625	629.1564331054688	-152.8339691162108	165.7327880859375	661.83251953125	-148.6156158447264	200.5152282714844	567.2958984375	-188.161163330078	137.8889312744141	552.7867431640625	-176.5554351806639	212.3672027587891	338.6710510253907	-178.6143951416015	270.7125854492188	342.7344665527344	-193.7642211914062	300.7075805664062	263.8575744628907	-215.1631622314453	240.654052734375	242.9420471191407	-203.3848724365234	292.1878356933594	37.81105041503913	-297.5054931640625	459.6422119140625	66.25148773193365	-224.3590393066406	490.3727722167969	112.9404220581055	-311.8348999023438	-37.53353881835938	938.3979492187501	-485.4967956542966	-22.35449409484863	647.8368530273439	-470.5025634765623	-71.15242004394531	680.5597534179689	-480.4367370605467	-105.9887390136719	586.0507812500001	-444.1994323730468	-43.22045516967773	573.6115722656251	-443.4039306640624	-173.6972503662109	324.6311950683595	-417.9049682617187	-233.9489288330078	325.3072814941407	-413.9559631347656	-264.9529418945312	246.2885742187501	-392.2128601074218	-203.1135711669922	229.9388885498048	-389.1521301269531	-357.3908996582031	75.24306488037116	-307.4848022460938	-192.6381225585938	17.97152709960946	-382.9314270019531	-150.6397705078125	33.35538482666022	-283.0885009765625	
3	0.008	162.3871765136719	1712.206176757812	-313.0195922851559	99.68705749511719	1664.1484375	-237.934906005859	104.2976684570312	1666.321166992188	-385.7775268554684	-39.1370849609375	1498.082275390625	-324.8098754882809	-121.7992935180664	1301.755737304688	-268.4790344238278	-108.5558471679688	1307.649780273438	-406.6497802734372	131.7509765625	1329.93603515625	-311.9957275390622	20.46919250488281	1443.719482421875	-147.4664611816403	-36.19392776489258	1285.63720703125	-63.55841064453097	20.54326820373535	1198.290771484375	-48.795902252197	-100.2563629150391	1204.453125	-59.72005081176731	-55.30068206787109	1096.77099609375	-43.39640426635718	-66.00724029541016	1091.128173828125	-123.2031555175779	38.182861328125	911.0216064453125	-28.05081176757792	78.44718170166016	842.8768920898438	-65.06785583496075	7.119069576263428	822.9995727539062	-31.81473731994611	71.90484619140625	754.698974609375	-9.313340187072587	54.39196395874023	1455.682373046875	-485.7450256347653	50.58518981933594	1291.479248046875	-584.4816894531247	116.0329132080078	1213.685302734375	-574.5009155273435	0.9076695442199707	1211.758178710938	-618.3988647460935	65.05140686035156	1110.116821289063	-620.1738281249998	6.780147552490234	1098.1201171875	-568.9279174804685	197.3265380859375	957.5621337890626	-576.4779052734373	235.2554321289062	907.7536621093751	-517.3285522460935	201.06689453125	873.3243408203126	-582.0912475585935	284.4297180175781	835.2037963867189	-555.7087402343748	39.28786849975586	1050.594116210938	-147.6538848876951	-94.94992828369141	1019.939697265625	-302.3145751953123	13.09884071350098	1042.23486328125	-490.5617980957029	13.69061851501465	896.1358032226562	-129.6475524902342	123.2223510742188	628.5465698242188	-153.3992767333983	172.0373687744141	661.3811645507812	-149.3549346923827	207.2763519287109	567.3209228515625	-188.9716644287108	144.6012420654297	552.1468505859375	-177.3879852294921	219.4470672607422	338.0233459472657	-179.6430206298827	277.7541198730469	342.0740051269532	-195.0015563964843	307.8031616210938	263.3619384765626	-216.5323791503906	247.7163238525391	242.4259033203126	-204.411880493164	298.9586181640625	37.60748291015631	-299.7452392578125	466.6765747070312	66.23950195312506	-225.660400390625	497.4067077636719	112.9695358276368	-313.132568359375	-31.89788818359375	937.4910888671876	-485.571350097656	-17.30033111572266	647.2037963867189	-470.9605407714842	-65.69667816162109	680.0006713867189	-480.691192626953	-100.9779586791992	585.5816040039064	-444.6531372070311	-38.20500946044922	573.0569458007814	-443.9682617187499	-170.587646484375	324.7786865234376	-418.2420349121093	-231.0112915039062	325.946014404297	-414.5129394531249	-262.5955505371094	246.9768524169923	-392.4286499023437	-200.7798309326172	230.0935821533204	-389.9291076660156	-356.8083190917969	77.02790069580085	-307.9478149414062	-192.64013671875	17.94674873352059	-382.9031982421875	-151.4629821777344	32.71079635620124	-282.6247253417969	
4	0.012	167.80859375	1711.49365234375	-312.582122802734	105.0738143920898	1663.166259765625	-237.6361083984371	109.7444076538086	1665.486938476562	-385.2722778320309	-33.55236053466797	1497.117065429688	-324.4966125488278	-116.1871109008789	1300.819213867188	-268.2919921874997	-103.0297012329102	1306.820922851562	-406.429504394531	137.4718475341797	1329.263305664062	-311.9576416015622	26.09709167480469	1442.762329101562	-147.1746826171872	-30.48096466064453	1284.498291015625	-63.51652145385714	26.31991004943848	1197.137573242188	-48.65798950195286	-94.49941253662109	1203.199584960938	-59.75801849365207	-49.33788299560547	1095.472412109375	-43.43575668334937	-60.2730712890625	1090.211547851562	-123.6574707031248	43.65340423583984	909.86962890625	-28.46487426757792	83.84654998779297	841.6360473632812	-65.45360565185528	12.44612121582031	821.8033447265625	-32.23551559448224	76.86849212646484	753.381103515625	-9.213842391967606	59.81525802612305	1454.998168945312	-485.4898681640622	56.06240081787109	1290.767333984375	-584.4594726562497	121.7063980102539	1213.113525390625	-574.3686523437498	6.459077835083008	1211.064331054688	-618.2266845703123	70.79383087158203	1109.449462890625	-620.0639038085935	12.46337509155273	1097.530517578125	-568.974426269531	203.1244201660156	956.9429931640626	-576.6450195312498	241.0558776855469	906.7523193359376	-517.351379394531	206.7250518798828	872.6721801757814	-582.4747314453123	290.1233215332031	834.4913940429689	-556.077453613281	44.9235954284668	1049.566772460938	-147.8459625244138	-88.89635467529297	1018.998352050781	-302.3445739746091	18.73518753051758	1041.27392578125	-490.4589233398435	19.66138458251953	895.132568359375	-129.8381042480467	129.9409637451172	627.914794921875	-153.913619995117	178.6606292724609	661.0751953125	-150.1447448730467	214.0133209228516	567.1925659179688	-189.7487182617186	151.5349426269531	551.7009887695312	-178.2092895507811	226.5152587890625	337.4992675781251	-180.3036041259765	284.6728515625	341.4416503906251	-196.749542236328	314.7356872558594	262.9797058105469	-217.2984771728515	254.6041717529297	242.1461029052735	-205.3319702148437	305.9556274414062	36.76551818847663	-300.54833984375	473.2991027832031	65.80213928222662	-227.0618438720703	503.9743347167969	112.5581283569337	-314.56298828125	-26.25799751281738	936.8330078125001	-485.7775268554685	-12.01789283752441	646.6040649414064	-471.322784423828	-60.6135368347168	679.5284423828126	-481.3654174804686	-96.02924346923828	585.1467895507814	-445.2050781249999	-33.16984558105469	572.3369140625001	-444.1924438476561	-167.1969299316406	324.8710937500001	-418.5431213378906	-227.6316833496094	326.3846435546876	-415.1572570800781	-260.2545776367188	247.7943725585938	-393.3417053222656	-198.6350250244141	230.7644195556641	-390.2928161621093	-356.2947692871094	79.01630401611335	-308.7391052246094	-192.6170043945312	17.93613815307626	-382.8461608886719	-151.4522552490234	32.64677429199225	-282.5631408691406	
